<?xml version="1.0" encoding="UTF-8"?>
<svg id="Ebene_7" data-name="Ebene 7" xmlns="http://www.w3.org/2000/svg" viewBox="0 0 40 40">
  <defs>
    <style>
      .cls-1 {
        fill: #333;
      }

      .cls-1, .cls-2 {
        stroke-width: 0px;
      }

      .cls-2 {
        fill: #a8e6cf;
      }

      .cls-3 {
        fill: none;
        stroke: #a8e6cf;
        stroke-width: .5px;
      }
    </style>
  </defs>
  <rect class="cls-1" x="-.1" y="-.05" width="40.1" height="40.1" rx="4.92" ry="4.92"/>
  <g>
    <path class="cls-2" d="M9.39,22.19v-2.3c0-.75-.36-1.27-1.07-1.27s-1.07.52-1.07,1.28v2.29h-.5v-2.3c0-.77-.37-1.28-1.07-1.28s-1.07.51-1.07,1.28v2.3h-.5v-3.92h.5v.45c.24-.37.64-.55,1.07-.55.57,0,1.04.27,1.32.75.31-.48.75-.75,1.32-.75,1.01,0,1.57.75,1.57,1.67v2.35h-.5Z"/>
    <path class="cls-2" d="M10.67,20.25c0-1.15.93-2.09,2.04-2.09s2.06.96,2.06,2.06-.95,2.06-2.06,2.06-2.04-.94-2.04-2.03ZM14.27,20.2c0-.85-.69-1.59-1.56-1.59s-1.54.74-1.54,1.63.7,1.59,1.55,1.59,1.55-.73,1.55-1.63Z"/>
    <path class="cls-2" d="M15.37,20.25c0-1.15.93-2.09,2.04-2.09s2.06.96,2.06,2.06-.95,2.06-2.06,2.06-2.04-.94-2.04-2.03ZM18.97,20.2c0-.85-.69-1.59-1.56-1.59s-1.54.74-1.54,1.63.7,1.59,1.55,1.59,1.55-.73,1.55-1.63Z"/>
    <path class="cls-2" d="M23.7,22.19v-.69h-.01c-.34.51-.92.78-1.53.78-1.18,0-2.11-.89-2.11-2.07s.96-2.05,2.11-2.05c.61,0,1.19.29,1.53.77h.01v-2.06h.5v5.31h-.5ZM23.73,20.23c0-.88-.68-1.61-1.58-1.61s-1.6.7-1.6,1.62.67,1.59,1.61,1.59c.87,0,1.57-.71,1.57-1.6Z"/>
  </g>
  <g>
    <path class="cls-2" d="M20.59,25.56v-1.09c0-.44-.27-.69-.61-.69-.38,0-.61.29-.61.67v1.11h-.25v-1.96h.25v.25h0c.13-.19.35-.3.6-.3.54,0,.86.37.86.92v1.09h-.25Z"/>
    <path class="cls-2" d="M21.22,24.59c0-.58.47-1.04,1.02-1.04s1.03.48,1.03,1.03-.48,1.03-1.03,1.03-1.02-.47-1.02-1.02ZM23.02,24.57c0-.43-.34-.79-.78-.79s-.77.37-.77.81.35.79.77.79.77-.37.77-.81Z"/>
    <path class="cls-2" d="M23.88,25.56v-1.74h-.41v-.23h.41v-.69h.25v.69h.47v.23h-.47v1.74h-.25Z"/>
    <path class="cls-2" d="M25.03,24.67c.02.39.38.71.76.71.3,0,.6-.18.7-.46h.27c-.15.42-.55.69-.96.69-.56,0-1.02-.45-1.02-1.03s.47-1.03,1.02-1.03c.59,0,1.03.51,1.03,1.05,0,.03,0,.05,0,.08h-1.79ZM26.56,24.45c-.07-.39-.38-.67-.77-.67-.37,0-.69.27-.76.67h1.53Z"/>
    <path class="cls-2" d="M27.95,24.08c-.01-.19-.13-.31-.29-.31s-.3.13-.3.29c0,.14.1.24.34.32.48.16.57.35.57.63,0,.36-.24.59-.62.59-.34,0-.6-.24-.6-.61h0s.25-.01.25-.01c0,.26.14.4.35.4.23,0,.37-.13.37-.35,0-.19-.12-.29-.35-.38-.34-.13-.56-.22-.56-.56,0-.32.24-.55.56-.55.29,0,.53.22.53.53h-.25Z"/>
  </g>
  <path class="cls-3" d="M25.14,17.62c0-1.2.97-2.18,2.18-2.18s2.18.97,2.18,2.18"/>
  <path class="cls-3" d="M30.44,17.62c0-1.2.97-2.18,2.18-2.18s2.18.97,2.18,2.18"/>
  <path class="cls-3" d="M35.1,18.54c0,2.06-2.28,3.73-5.1,3.73s-5.1-1.67-5.1-3.73"/>
</svg>